<?xml version="1.0" encoding="UTF-8"?>
<svg width="24" height="24" viewBox="0 0 24 24" xmlns="http://www.w3.org/2000/svg" role="img" aria-label="OctAIvius">
  <defs>
    <linearGradient id="octaiviusGradient" x1="0" y1="0" x2="1" y2="1">
      <stop offset="0%" stop-color="#7C3AED"/>
      <stop offset="100%" stop-color="#4F46E5"/>
    </linearGradient>
  </defs>
  <circle cx="12" cy="8.5" r="4.5" fill="url(#octaiviusGradient)"/>
  <circle cx="10.5" cy="8.25" r="0.6" fill="#FFFFFF"/>
  <circle cx="13.5" cy="8.25" r="0.6" fill="#FFFFFF"/>
  <path d="M5.5 14.5c1.2-.6 2.4-.9 3.5-.9 2.1 0 3.5 1 5 1 1.1 0 2.3-.3 3.5-.9v2.2c0 .9-.7 1.6-1.6 1.6-.7 0-1.3-.4-1.5-1.1l-.2-.6c-.2.7-.8 1.3-1.6 1.3-.8 0-1.4-.5-1.6-1.3l-.2-.6c-.2.7-.8 1.1-1.5 1.1-.8 0-1.5-.7-1.5-1.6l-.1-.9c-.3.6-.9 1.1-1.6 1.1-.9 0-1.6-.7-1.6-1.6v-2.2z" fill="url(#octaiviusGradient)"/>
  <ellipse cx="12" cy="20.2" rx="6.5" ry="1.2" fill="#000" opacity="0.12"/>
</svg>
