<?xml version="1.0" encoding="UTF-8"?>
<svg width="32px" height="32px" viewBox="0 0 32 32" version="1.1" xmlns="http://www.w3.org/2000/svg" xmlns:xlink="http://www.w3.org/1999/xlink">
        <defs>
        <linearGradient x1="0%" y1="50%" x2="100.001905%" y2="50%" id="linearGradient-1">
            <stop stop-color="#16B3B5" offset="0%"></stop>
            <stop stop-color="#113340" offset="100%"></stop>
        </linearGradient>
        <linearGradient x1="0%" y1="50.0024206%" x2="99.9853664%" y2="50.0024206%" id="linearGradient-2">
            <stop stop-color="#6DD7C6" offset="0%"></stop>
            <stop stop-color="#5BB585" offset="100%"></stop>
        </linearGradient>
        <linearGradient x1="1.04606821%" y1="38.6675985%" x2="98.2221979%" y2="60.0537607%" id="linearGradient-3">
            <stop stop-color="#4CBCC8" offset="0%"></stop>
            <stop stop-color="#1E789A" offset="100%"></stop>
        </linearGradient>
    </defs>
    <g id="icon/gv/circle" stroke="none" stroke-width="1" fill="none" fill-rule="evenodd">
        <g id="GV_Logo_WhiteText_Master" transform="translate(1.000000, 1.000000)" fill-rule="nonzero">
            <circle id="Oval" fill="url(#linearGradient-1)" cx="15" cy="15" r="15"></circle>
            <path d="M13.3593661,16.6617776 C12.3600127,15.7647022 10.9531551,15.4793067 9.68322603,15.9160349 L9.68322603,15.9160349 L0.551449579,19.0424397 C2.08407939,24.5317917 6.65968227,28.751381 12.3456132,29.7662768 L14.4954093,20.2361995 L14.4954093,20.2361995 C14.7933819,18.926853 14.3585924,17.5588409 13.3593661,16.6617776 L13.3593661,16.6617776 Z" id="Path" fill="url(#linearGradient-2)"></path>
            <path d="M15,0.00170205919 C12.4909744,-0.00150419266 10.0215672,0.627393782 7.81972647,1.83035544 L15.4880186,15.5554497 L15.4880186,15.5554497 C16.88907,18.0696999 19.4293441,19.7416173 22.2927125,20.0340556 C25.1560809,20.3264939 27.9818917,19.2026194 29.8622805,17.0235057 C29.9532371,16.353032 29.9988574,15.6771866 29.9988574,15.0005715 C30.0005715,6.71625586 23.284887,0.00170205919 15,0.00170205919 Z" id="Path" fill="url(#linearGradient-3)"></path>
            <path d="M9.32149796,8.10030858 C5.17505429,8.10030858 2.23551373,10.9632748 2.23551373,15.0051431 C2.23551373,19.1613014 5.32591718,21.9002629 9.29178254,21.9002629 C12.715913,21.9002629 15.758899,19.3990247 15.758899,15.138291 C15.7595128,14.8043963 15.7373653,14.4708477 15.6925978,14.1399672 L9.30206865,14.1399672 L9.30206865,16.5932036 L12.5450493,16.5932036 C12.1741781,18.1624062 11.0712789,18.9995809 9.17863538,18.9995809 C7.2002743,18.9995809 5.50763839,17.5635262 5.50763839,15.0051431 C5.50763839,12.6844832 7.03855385,11.0867081 9.16892072,11.0867081 C10.4055393,11.0867081 11.346718,11.5438683 12.0124576,12.2564669 L14.2759724,10.0312393 C13.1159282,8.82319326 11.4324355,8.10030858 9.32092651,8.10030858" id="Path" fill="#FFFFFF"></path>
            <path d="M26.6210141,8.21574155 L23.3437464,8.21574155 L18.2504095,18.6544249 L16.2337613,14.8394225 C16.23719,14.9394263 16.2394758,15.0388586 16.2394758,15.138291 C16.2394758,16.2977637 16.0257534,17.3440893 15.6394529,18.2595527 C15.5222923,18.534617 15.3875319,18.8018473 15.236009,19.0595832 L16.7343518,21.760829 L16.7343518,21.760829 L20.011048,21.760829 L26.6210141,8.21574155 Z" id="Path" fill="#FFFFFF"></path>
        </g>
    </g>
</svg>