<svg xmlns="http://www.w3.org/2000/svg" width="20" height="20" viewBox="0 0 24 24" fill="currentColor" aria-hidden="true"><path d="M19.14,12.94a7.07,7.07,0,0,0,.05-.94,7.07,7.07,0,0,0-.05-.94l2.11-1.65a.5.5,0,0,0,.12-.64l-2-3.46a.5.5,0,0,0-.6-.22l-2.49,1a7,7,0,0,0-1.62-.94l-.38-2.65A.5.5,0,0,0,11.79,1H8.21a.5.5,0,0,0-.49.42L7.34,4.07a7,7,0,0,0-1.62.94l-2.49-1a.5.5,0,0,0-.6.22l-2,3.46a.5.5,0,0,0,.12.64L2.9,11.06a7.07,7.07,0,0,0-.05.94,7.07,7.07,0,0,0,.05.94L.79,14.59a.5.5,0,0,0-.12.64l2,3.46a.5.5,0,0,0,.6.22l2.49-1a7,7,0,0,0,1.62.94l.38,2.65a.5.5,0,0,0,.49.42h3.58a.5.5,0,0,0,.49-.42l.38-2.65a7,7,0,0,0,1.62-.94l2.49,1a.5.5,0,0,0,.6-.22l2-3.46a.5.5,0,0,0-.12-.64ZM12,15.5A3.5,3.5,0,1,1,15.5,12,3.5,3.5,0,0,1,12,15.5Z"/></svg>
