<?xml version="1.0" encoding="UTF-8"?>
<svg width="32px" height="32px" viewBox="0 0 32 32" version="1.1" xmlns="http://www.w3.org/2000/svg" xmlns:xlink="http://www.w3.org/1999/xlink">
        <g id="icon/settings/tool-settings" stroke="none" stroke-width="1" fill="none" fill-rule="evenodd">
        <g id="icon" transform="translate(1.000000, 1.000000)" fill="#FFFFFF">
            <path d="M20.9850095,-8.70414851e-14 C22.3700095,-8.70414851e-14 23.7460095,0.33 24.9640095,0.952 C25.1010095,1.023 25.1990095,1.152 25.2280095,1.303 C25.2570095,1.455 25.2150095,1.61 25.1130095,1.726 L25.1130095,1.726 L21.5960095,5.76 L21.5960095,8.614 L23.8170095,8.614 L27.8460095,4.597 C27.9590095,4.484 28.1190095,4.431 28.2770095,4.457 C28.4350095,4.482 28.5710095,4.58 28.6440095,4.723 C30.0363113,7.44468379 29.8890414,10.6166565 28.3743675,13.148173 C28.1908764,12.9841883 27.9693837,12.8649896 27.7264921,12.8029458 C27.3271474,12.6978195 26.896544,12.7604357 26.5373331,12.9773141 L26.5373331,12.9773141 L25.418881,13.6530403 C25.092055,13.4367162 24.7286318,13.2254376 24.3265891,13.0174908 L24.3265891,13.0174908 L24.3265891,11.5595147 C24.3265891,10.6997726 23.6311782,10 22.7705619,10 L22.7705619,10 L18.5647719,10 C17.7041556,10 17.0087447,10.6997726 17.0087447,11.5595147 L17.0087447,11.5595147 L17.0087447,12.8534374 C16.5150279,13.0564511 16.0935199,13.3073255 15.6646832,13.6383934 L15.6646832,13.6383934 L14.4689746,12.9576406 C13.7273657,12.5343409 12.7845519,12.7908845 12.3556204,13.5290204 L12.3556204,13.5290204 L10.2310219,17.1948316 C10.0243075,17.5487495 9.96618533,17.9746315 10.0710194,18.374879 C10.1772673,18.7742643 10.4350111,19.1140592 10.7873379,19.3224273 L10.7873379,19.3224273 L11.9721604,20.0147634 C11.9307365,20.4927422 11.9296359,20.9679413 11.9689954,21.4430006 L11.9689954,21.4430006 L10.7769331,22.1342861 C10.419413,22.3407566 10.1582927,22.683917 10.0526012,23.0843101 C9.9860436,23.3291848 9.98250136,23.5873107 10.039103,23.8339597 L5.1520095,28.721 C4.5810095,29.291 3.8230095,29.606 3.0170095,29.606 C2.2110095,29.606 1.4530095,29.291 0.883009496,28.721 C0.312009496,28.15 -0.00199050446,27.391 9.49554169e-06,26.583 C0.00200949554,25.777 0.318009496,25.018 0.889009496,24.448 L0.889009496,24.448 L13.0280095,12.321 C11.5140095,9.03 12.2070095,5.144 14.8060095,2.545 C16.4470095,0.904 18.6420095,-8.70414851e-14 20.9850095,-8.70414851e-14 Z" id="Combined-Shape" fill-opacity="0.4"></path>
            <path d="M20.500524,23.6666667 C18.7544818,23.6666667 17.3333333,22.2468012 17.3333333,20.5 C17.3333333,18.7542466 18.7544818,17.3333333 20.500524,17.3333333 C22.2465663,17.3333333 23.6666667,18.7542466 23.6666667,20.5 C23.6666667,22.2468012 22.2465663,23.6666667 20.500524,23.6666667 M29.7209023,22.9993521 L27.9616321,21.9765593 C28.1006389,21.1406443 28.1006389,20.3192768 27.9605201,19.4855999 L29.7209023,18.462807 C29.9877954,18.3083809 30.0789838,17.9659579 29.9244083,17.6985099 L27.8215133,14.0336887 C27.7470056,13.9027622 27.6235676,13.8087638 27.4790005,13.7718358 C27.3344334,13.7337888 27.182082,13.7561694 27.0541957,13.8333824 L25.3705452,14.8505801 C24.8512158,14.4387773 24.1761987,14.0381648 23.3265891,13.6397903 L23.3265891,11.5595147 C23.3265891,11.2506626 23.0774889,11 22.7705619,11 L18.5647719,11 C18.2578449,11 18.0087447,11.2506626 18.0087447,11.5595147 L18.0087447,13.5648154 C16.9556291,13.8691914 16.3640161,14.3201602 15.7746272,14.8516992 L13.9742111,13.8266682 C13.7095421,13.6755993 13.3737017,13.7673597 13.2202381,14.0314506 L11.0962141,17.6962719 C11.0217065,17.8238412 11.0005774,17.9771482 11.0383873,18.121503 C11.0761971,18.2636198 11.1696097,18.386713 11.2963839,18.461688 L13.0467576,19.4844808 C12.9066388,20.3237529 12.9044147,21.1462395 13.0423094,21.9765593 L11.278591,22.9993521 C11.1507048,23.0732081 11.0572922,23.1963013 11.0194823,23.3395371 C10.9805604,23.4827728 11.0005774,23.6360799 11.073973,23.7647682 L13.176868,27.4295895 C13.3281074,27.6936804 13.6639479,27.7876789 13.9286168,27.638848 L15.770179,26.609341 C16.3528956,27.1352848 16.9433965,27.5918488 18.0087447,27.8973438 L18.0087447,29.4404853 C18.0087447,29.7493374 18.2578449,30 18.5647719,30 L22.7705619,30 C23.0774889,30 23.3265891,29.7493374 23.3265891,29.4404853 L23.3265891,27.8223688 C24.1761987,27.4251134 24.8512158,27.0245009 25.3727693,26.61046 L27.0530836,27.6287767 C27.1809699,27.7059898 27.3344334,27.7283703 27.4790005,27.6914424 C27.6235676,27.6545144 27.7470056,27.5593969 27.8215133,27.4295895 L29.9255203,23.7647682 C30.0789838,23.4962012 29.9877954,23.1548972 29.7209023,22.9993521" id="Combined-Shape"></path>
        </g>
    </g>
</svg>